<svg width="647" height="804" viewBox="0 0 647 804" fill="none" xmlns="http://www.w3.org/2000/svg">
<mask id="mask0_23_582" style="mask-type:alpha" maskUnits="userSpaceOnUse" x="52" y="0" width="806" height="804">
<mask id="path-1-outside-1_23_582" maskUnits="userSpaceOnUse" x="51.1138" y="-0.597168" width="807" height="804" fill="black">
<rect fill="white" x="51.1138" y="-0.597168" width="807" height="804"/>
<path d="M454.666 200.559L479.973 0.402832L479.776 202.14L529.996 6.72565L504.688 206.882L579.03 19.1737L528.809 214.786L626.086 37.747L551.547 225.456L670.375 62.0503L572.9 239.089L711.104 91.8861L592.474 255.094L748.078 126.464L609.676 273.469L780.305 165.389L624.504 294.019L807.393 208.068L636.763 316.148L828.944 253.711L646.056 339.661L844.563 301.725L652.383 364.162L854.054 351.319L655.546 389.058L857.217 401.704L655.546 414.35L854.054 452.089L652.383 439.443L844.563 501.684L646.056 463.944L828.944 549.895L636.763 487.457L807.393 595.538L624.504 509.587L780.305 638.217L609.676 529.939L748.078 677.142L592.474 548.314L711.104 711.72L572.9 564.517L670.375 741.358L551.547 577.953L626.086 765.661L528.809 588.82L579.03 784.234L504.688 596.526L529.996 796.88L479.776 601.268L479.973 803.203L454.666 602.849L429.358 803.203V601.268L379.138 796.88L404.643 596.526L330.302 784.234L380.522 588.82L283.245 765.661L357.784 577.953L238.956 741.358L336.431 564.517L198.029 711.72L316.857 548.314L161.254 677.142L299.655 529.939L129.026 638.217L284.827 509.587L101.938 595.538L272.568 487.457L80.3873 549.895L263.276 463.944L64.7677 501.684L256.949 439.443L55.2772 452.089L253.785 414.35L52.1138 401.704L253.785 389.058L55.2772 351.319L256.949 364.162L64.7677 301.725L263.276 339.661L80.3873 253.711L272.568 316.148L101.938 208.068L284.827 294.019L129.026 165.389L299.655 273.469L161.254 126.464L316.857 255.094L198.029 91.8861L336.431 239.089L238.956 62.0503L357.784 225.456L283.245 37.747L380.522 214.786L330.302 19.1737L404.643 206.882L379.138 6.72565L429.358 202.14V0.402832L454.666 200.559Z"/>
</mask>
<path d="M454.666 200.559L479.973 0.402832L479.776 202.14L529.996 6.72565L504.688 206.882L579.03 19.1737L528.809 214.786L626.086 37.747L551.547 225.456L670.375 62.0503L572.9 239.089L711.104 91.8861L592.474 255.094L748.078 126.464L609.676 273.469L780.305 165.389L624.504 294.019L807.393 208.068L636.763 316.148L828.944 253.711L646.056 339.661L844.563 301.725L652.383 364.162L854.054 351.319L655.546 389.058L857.217 401.704L655.546 414.35L854.054 452.089L652.383 439.443L844.563 501.684L646.056 463.944L828.944 549.895L636.763 487.457L807.393 595.538L624.504 509.587L780.305 638.217L609.676 529.939L748.078 677.142L592.474 548.314L711.104 711.72L572.9 564.517L670.375 741.358L551.547 577.953L626.086 765.661L528.809 588.82L579.03 784.234L504.688 596.526L529.996 796.88L479.776 601.268L479.973 803.203L454.666 602.849L429.358 803.203V601.268L379.138 796.88L404.643 596.526L330.302 784.234L380.522 588.82L283.245 765.661L357.784 577.953L238.956 741.358L336.431 564.517L198.029 711.72L316.857 548.314L161.254 677.142L299.655 529.939L129.026 638.217L284.827 509.587L101.938 595.538L272.568 487.457L80.3873 549.895L263.276 463.944L64.7677 501.684L256.949 439.443L55.2772 452.089L253.785 414.35L52.1138 401.704L253.785 389.058L55.2772 351.319L256.949 364.162L64.7677 301.725L263.276 339.661L80.3873 253.711L272.568 316.148L101.938 208.068L284.827 294.019L129.026 165.389L299.655 273.469L161.254 126.464L316.857 255.094L198.029 91.8861L336.431 239.089L238.956 62.0503L357.784 225.456L283.245 37.747L380.522 214.786L330.302 19.1737L404.643 206.882L379.138 6.72565L429.358 202.14V0.402832L454.666 200.559Z" stroke="black" stroke-width="2.47778" stroke-miterlimit="10" mask="url(#path-1-outside-1_23_582)"/>
</mask>
<g mask="url(#mask0_23_582)">
<rect x="-972.982" y="-46.8203" width="1428.22" height="870.756" rx="55.75" fill="black"/>
</g>
<path d="M119.019 582.799L175.644 613.652L119.019 644.753L88.0416 701.255L57.0647 644.753L0.438956 613.652L57.0647 582.799L88.0416 526.05L119.019 582.799Z" fill="#16E965"/>
<path d="M269.404 302.153L370.59 357.285L269.404 412.86L214.05 513.825L158.696 412.86L57.51 357.285L158.697 302.153L214.05 200.745L269.404 302.153Z" fill="#191A23"/>
</svg>
