<svg width="455" height="499" viewBox="0 0 455 499" fill="none" xmlns="http://www.w3.org/2000/svg">
<path d="M427.062 250.756C427.062 253.634 425.676 256.507 422.903 259.353C420.128 262.202 416.003 264.98 410.635 267.646C399.902 272.977 384.329 277.795 365.034 281.849C326.454 289.953 273.127 294.97 214.203 294.97C155.28 294.97 101.953 289.953 63.3729 281.849C44.0777 277.795 28.505 272.977 17.7713 267.646C12.4033 264.98 8.27816 262.202 5.50305 259.353C2.73017 256.507 1.34488 253.634 1.34488 250.756C1.34488 247.879 2.73017 245.005 5.50305 242.159C8.27816 239.31 12.4033 236.532 17.7713 233.866C28.505 228.535 44.0777 223.717 63.3729 219.664C101.953 211.56 155.28 206.542 214.203 206.542C273.127 206.542 326.454 211.56 365.034 219.664C384.329 223.717 399.902 228.535 410.635 233.866C416.003 236.532 420.128 239.31 422.903 242.159C425.676 245.005 427.062 247.879 427.062 250.756Z" stroke="black" stroke-width="1.26325"/>
<path d="M427.062 282.337C427.062 285.215 425.676 288.088 422.903 290.934C420.128 293.783 416.003 296.562 410.635 299.227C399.902 304.558 384.329 309.377 365.034 313.43C326.454 321.534 273.127 326.551 214.203 326.551C155.28 326.551 101.953 321.534 63.3729 313.43C44.0777 309.377 28.505 304.558 17.7713 299.227C12.4033 296.562 8.27816 293.783 5.50305 290.934C2.73017 288.088 1.34488 285.215 1.34488 282.337C1.34488 279.46 2.73017 276.586 5.50305 273.74C8.27816 270.891 12.4033 268.113 17.7713 265.447C28.505 260.116 44.0777 255.298 63.3729 251.245C101.953 243.141 155.28 238.123 214.203 238.123C273.127 238.123 326.454 243.141 365.034 251.245C384.329 255.298 399.902 260.116 410.635 265.447C416.003 268.113 420.128 270.891 422.903 273.74C425.676 276.586 427.062 279.46 427.062 282.337Z" stroke="black" stroke-width="1.26325"/>
<path d="M427.062 313.919C427.062 316.796 425.676 319.67 422.903 322.516C420.128 325.365 416.003 328.143 410.635 330.809C399.902 336.14 384.329 340.958 365.034 345.011C326.454 353.115 273.127 358.133 214.203 358.133C155.28 358.133 101.953 353.115 63.3729 345.011C44.0777 340.958 28.505 336.14 17.7713 330.809C12.4033 328.143 8.27816 325.365 5.50305 322.516C2.73017 319.67 1.34488 316.796 1.34488 313.919C1.34488 311.041 2.73017 308.168 5.50305 305.322C8.27816 302.473 12.4033 299.695 17.7713 297.029C28.505 291.698 44.0777 286.879 63.3729 282.826C101.953 274.722 155.28 269.705 214.203 269.705C273.127 269.705 326.454 274.722 365.034 282.826C384.329 286.879 399.902 291.698 410.635 297.029C416.003 299.695 420.128 302.473 422.903 305.322C425.676 308.168 427.062 311.041 427.062 313.919Z" stroke="black" stroke-width="1.26325"/>
<path d="M319.487 84.1697L319.699 85.3135L320.542 84.5128L380.083 28.0152L344.749 102.1L344.248 103.15L345.402 102.998L426.779 92.2876L354.648 131.455L353.626 132.01L354.648 132.565L426.779 171.733L345.402 161.022L344.248 160.87L344.749 161.92L380.083 236.005L320.542 179.507L319.699 178.707L319.487 179.85L304.526 260.555L289.565 179.85L289.353 178.707L288.51 179.507L228.969 236.005L264.303 161.92L264.803 160.87L263.65 161.022L182.273 171.733L254.404 132.565L255.426 132.01L254.404 131.455L182.273 92.2876L263.65 102.998L264.803 103.15L264.303 102.1L228.969 28.0152L288.51 84.5128L289.353 85.3135L289.565 84.1697L304.526 3.46534L319.487 84.1697Z" stroke="black" stroke-width="1.26325"/>
<path d="M350.635 223.596L373.107 280.519L431.622 262.598L401.13 315.658L451.624 350.233L391.128 359.476L395.579 420.512L350.635 378.976L305.69 420.512L310.141 359.476L249.645 350.233L300.14 315.658L269.647 262.598L328.162 280.519L350.635 223.596Z" fill="#D9D9D9"/>
<path d="M142.443 386.685L171.422 333.499L200.634 386.685L253.704 415.78L200.634 444.875L171.422 498.061L142.443 444.875L89.1411 415.78L142.443 386.685Z" fill="#16E965"/>
<circle cx="193.36" cy="235.597" r="78.3218" fill="black" stroke="black" stroke-width="1.26325"/>
<ellipse cx="167.463" cy="218.543" rx="12.6325" ry="25.2651" fill="white"/>
<ellipse cx="219.256" cy="218.543" rx="12.6325" ry="25.2651" fill="white"/>
</svg>
