<svg width="690" height="1434" viewBox="0 0 690 1434" fill="none" xmlns="http://www.w3.org/2000/svg">
<g opacity="0.18">
<path d="M-188.402 1335.78C-205.883 1341.75 -222.863 1347 -239.251 1351.49C-329.222 1376.16 -398.498 1377.69 -445.154 1356.05C-492.888 1333.91 -515.583 1287.72 -512.618 1218.75C-503.607 1009.39 -480.14 873.521 -464.612 783.622C-457.623 743.158 -452.102 711.193 -450.529 687.016C-447.916 646.78 -413.743 582.878 -361.354 520.239C-304.973 452.836 -240.208 401.559 -183.656 379.562C-105.664 349.224 -26.2062 291.149 26.7128 247.771C88.3588 197.241 150.48 136.495 192.882 85.2743C220.253 52.2069 252.891 40.2545 287.255 50.706C346.755 68.8081 403.74 151.595 435.968 266.751C451.24 321.331 467.036 377.777 479.564 433.17C493.421 494.416 501.658 547.757 504.756 596.238C508.447 654.126 505.11 706.797 494.552 757.249C482.761 813.578 462.296 865.934 431.987 917.312C380.223 1005.06 214.097 1137.13 28.0062 1238.47C-48.1223 1279.93 -121.91 1313.06 -188.404 1335.77L-188.402 1335.78ZM239.608 53.5948C223.444 59.1152 208.169 70.3548 194.27 87.1474C151.78 138.478 89.5496 199.332 27.8083 249.939C-25.2188 293.398 -104.851 351.603 -183.069 382.027C-239.33 403.916 -303.814 454.973 -359.977 522.125C-412.016 584.343 -445.946 647.613 -448.52 687.242C-450.104 711.6 -455.639 743.632 -462.643 784.19C-478.159 874.013 -501.598 1009.75 -510.603 1218.91C-513.515 1286.6 -491.264 1331.94 -444.462 1353.65C-398.17 1375.12 -329.269 1373.55 -239.671 1349C-161.094 1327.46 -68.807 1288.43 27.2147 1236.13C213.019 1134.94 378.806 1003.21 430.38 915.788C460.53 864.677 480.883 812.616 492.608 756.602C503.107 706.436 506.429 654.054 502.751 596.462C495.858 488.41 464.445 376.173 434.073 267.628C402.077 153.279 345.642 71.1193 286.789 53.2211C270.539 48.275 254.684 48.4549 239.61 53.603L239.608 53.5948Z" fill="black"/>
<path d="M-169.138 1290.35C-182.966 1295.07 -196.435 1299.29 -209.499 1302.98C-291.891 1326.26 -355.312 1328.25 -398.016 1308.89C-441.183 1289.32 -461.905 1248.12 -459.609 1186.42C-453.75 1000.01 -433.862 870.838 -420.706 785.372C-414.529 745.247 -409.653 713.556 -408.165 689.107C-405.749 649.584 -374.436 588.59 -326.444 529.915C-275.054 467.086 -214.943 418.683 -161.523 397.109C-89.6746 368.674 -16.3676 315.782 32.4731 276.428C89.8538 230.189 145.786 176.827 185.929 130.009C211.267 100.47 241.351 90.1339 272.938 100.116C327.769 117.44 380.171 193.616 409.692 298.935C437.618 398.262 466.5 500.975 472.856 602.203C476.206 655.523 473.116 704.079 463.41 750.644C452.589 802.585 433.838 850.884 406.109 898.298C358.708 979.897 206.267 1102.89 35.4086 1197.39C-36.6848 1237.27 -106.543 1268.98 -169.143 1290.36L-169.138 1290.35ZM227.712 102.542C213.313 107.459 199.681 117.252 187.213 131.785C146.992 178.691 90.9631 232.157 33.492 278.462C-15.4504 317.896 -88.9091 370.893 -160.949 399.411C-214.1 420.875 -273.941 469.071 -325.125 531.652C-372.797 589.934 -403.887 650.339 -406.269 689.292C-407.762 713.884 -412.653 745.634 -418.836 785.832C-431.985 871.233 -451.85 1000.28 -457.703 1186.52C-459.954 1247.04 -439.658 1287.44 -397.368 1306.61C-355.01 1325.81 -291.936 1323.79 -209.898 1300.62C-137.806 1280.26 -53.2368 1243.79 34.6691 1195.17C205.254 1100.82 357.373 978.148 404.601 896.847C432.194 849.682 450.835 801.652 461.595 750.015C471.246 703.717 474.316 655.433 470.981 602.383C464.642 501.467 435.807 398.908 407.918 299.727C378.604 195.161 326.715 119.571 272.488 102.44C257.075 97.5715 242.013 97.6491 227.711 102.533L227.712 102.542Z" fill="black"/>
<path d="M-149.716 1244.96C-159.956 1248.46 -169.963 1251.64 -179.732 1254.5C-254.542 1276.39 -312.118 1278.82 -350.857 1261.75C-389.456 1244.75 -408.201 1208.52 -406.564 1154.08C-403.811 989.418 -388.024 871.54 -376.496 785.478C-371.263 746.419 -367.135 715.568 -365.76 691.175C-363.508 651.771 -335.744 595.097 -291.493 539.569C-245.074 481.317 -189.616 435.787 -139.347 414.642C-20.2619 366.55 116.281 244.818 179.011 174.732C202.316 148.722 229.859 139.998 258.677 149.509C308.83 166.056 356.64 235.634 383.454 331.09C407.712 416.87 435.197 514.097 440.996 608.147C443.998 656.9 441.163 701.34 432.316 744.015C422.457 791.571 405.432 835.808 380.273 879.262C358.672 917.117 314.098 964.164 251.377 1015.3C191.131 1064.42 117.066 1114.5 42.8419 1156.31C-25.1704 1194.63 -91.0742 1224.94 -149.709 1244.96L-149.716 1244.96ZM215.793 151.462C203.172 155.773 191.192 164.124 180.174 176.426C117.337 246.636 -19.471 368.592 -138.806 416.787C-188.819 437.827 -244.025 483.164 -290.258 541.176C-334.206 596.326 -361.776 652.464 -364.002 691.336C-365.382 715.837 -369.52 746.737 -374.76 785.86C-386.275 871.855 -402.047 989.639 -404.804 1154.15C-406.405 1207.5 -388.062 1242.98 -350.282 1259.63C-311.857 1276.56 -254.614 1274.09 -180.133 1252.3C-114.529 1233.1 -37.6676 1199.2 42.116 1154.25C116.265 1112.48 190.239 1062.46 250.413 1013.4C312.945 962.415 357.353 915.575 378.831 877.93C403.865 834.704 420.795 790.712 430.589 743.444C439.384 701.017 442.208 656.82 439.219 608.329C433.442 514.582 405.994 417.5 381.772 331.859C355.153 237.099 307.812 168.06 258.218 151.694C243.607 146.87 229.329 146.839 215.787 151.464L215.793 151.462Z" fill="black"/>
<path d="M-130.13 1199.64C-136.872 1201.94 -143.487 1204.08 -149.997 1206.07C-217.227 1226.56 -268.947 1229.46 -303.727 1214.68C-337.752 1200.22 -354.507 1168.95 -353.531 1121.75C-353.896 977.328 -341.253 864.943 -332.018 782.889C-328.039 747.527 -324.603 716.991 -323.368 693.257C-321.31 654.548 -296.332 600.704 -256.561 549.239C-215.083 495.57 -164.283 452.898 -117.186 432.181C-70.0784 412.701 -14.3278 378.656 44.0574 333.722C90.9188 297.656 137.58 256.007 172.086 219.458C193.353 196.961 218.371 189.851 244.431 198.914C289.893 214.716 333.101 277.691 357.198 363.268C382.746 453 404.285 533.818 409.119 614.115C411.78 658.298 409.187 698.634 401.199 737.42C392.308 780.58 377.005 820.766 354.414 860.261C334.868 895.253 294.633 938.621 238.056 985.675C183.93 1030.69 117.229 1076.73 50.2341 1115.31C-13.6478 1152.1 -75.5383 1181.02 -130.137 1199.67L-130.13 1199.64ZM203.815 200.341C192.985 204.039 182.681 210.968 173.133 221.067C138.572 257.679 91.8345 299.398 44.9069 335.513C-13.5864 380.529 -69.4533 414.648 -116.664 434.164C-163.512 454.778 -214.082 497.256 -255.383 550.705C-294.887 601.822 -319.69 655.173 -321.719 693.394C-322.958 717.209 -326.4 747.782 -330.385 783.181C-339.612 865.171 -352.247 977.465 -351.878 1121.77C-352.835 1167.97 -336.461 1198.55 -303.201 1212.69C-268.71 1227.35 -217.294 1224.43 -150.371 1204.02C-91.2422 1185.98 -22.1042 1154.65 49.5683 1113.37C116.489 1074.83 183.113 1028.85 237.166 983.889C293.572 936.982 333.651 893.799 353.085 859.005C375.56 819.718 390.773 779.766 399.614 736.863C407.554 698.306 410.131 658.197 407.487 614.256C402.667 534.229 381.166 453.558 355.661 363.962C331.738 279.015 288.956 216.542 244.004 200.92C230.175 196.112 216.635 195.953 203.826 200.328L203.815 200.341Z" fill="black"/>
<path d="M-110.34 1154.41C-113.695 1155.56 -117.011 1156.65 -120.302 1157.71C-179.95 1176.82 -225.822 1180.18 -256.646 1167.67C-286.093 1155.73 -300.856 1129.41 -300.512 1089.42C-304.158 963.337 -294.417 854.945 -287.304 775.803C-284.483 744.424 -282.044 717.32 -280.996 695.342C-279.1 656.723 -257.464 606.996 -221.642 558.909C-185.067 509.81 -138.927 470.014 -95.0422 449.73C-7.44592 412.472 101.229 327.431 165.14 264.187C184.394 245.176 206.894 239.688 230.206 248.317C270.954 263.399 309.552 319.764 330.933 395.428C352.882 471.881 372.935 546.59 377.23 620.055C379.548 659.662 377.205 695.891 370.075 730.788C362.153 769.56 348.568 805.678 328.554 841.22C311.063 873.349 275.157 913.06 224.728 956.04C176.722 996.951 117.373 1038.96 57.6147 1074.32C-2.07097 1109.62 -59.8812 1137.18 -110.338 1154.42L-110.34 1154.41ZM191.743 249.167C182.736 252.243 174.12 257.772 166.079 265.709C102.069 329.048 -6.79072 414.232 -94.5345 451.55C-138.185 471.727 -184.112 511.344 -220.528 560.238C-256.111 608.005 -277.59 657.288 -279.463 695.456C-280.515 717.48 -282.956 744.611 -285.777 776.017C-292.89 855.097 -302.621 963.405 -298.981 1089.4C-299.314 1128.47 -284.913 1154.17 -256.173 1165.82C-225.623 1178.21 -180.031 1174.85 -120.664 1155.82C-68.0188 1138.93 -6.58425 1110.16 56.9772 1072.54C116.661 1037.22 175.939 995.279 223.885 954.414C274.161 911.567 309.925 872.037 327.315 840.093C347.231 804.744 360.734 768.831 368.608 730.297C375.699 695.608 378.023 659.589 375.723 620.198C371.444 546.975 351.421 472.407 329.514 396.09C308.296 320.999 270.093 265.092 229.798 250.183C216.705 245.336 203.874 245.042 191.753 249.182L191.743 249.167Z" fill="black"/>
<path d="M-90.3066 1109.31L-90.6764 1109.43C-142.74 1127.17 -182.765 1130.98 -209.63 1120.77C-234.505 1111.32 -247.259 1089.89 -247.533 1057.09C-254.913 947.184 -247.741 839.802 -242.504 761.398C-240.864 736.844 -239.444 715.642 -238.652 697.409C-236.948 659.432 -218.028 612.466 -186.759 568.563C-155.038 524.028 -113.547 487.095 -72.9287 467.253C-35.1847 450.643 8.03698 424.988 55.5659 391.006C91.316 365.44 128.709 335.513 158.165 308.89C175.416 293.353 195.413 289.491 216.013 297.725C252.033 312.119 285.988 361.877 304.627 427.583C323.157 491.44 341.554 559.363 345.304 626C347.273 661.04 345.183 693.144 338.908 724.17C331.954 758.546 320.091 790.613 302.643 822.187C272.042 880.219 176.501 965.106 64.9179 1033.4C9.53369 1067.3 -44.1304 1093.54 -90.3066 1109.31ZM179.484 297.916C172.326 300.36 165.445 304.517 158.966 310.352C129.474 337.005 92.0285 366.976 56.2413 392.564C8.6462 426.595 -34.6581 452.288 -72.4588 468.926C-112.856 488.666 -154.148 525.416 -185.728 569.761C-216.787 613.371 -235.569 659.935 -237.261 697.51C-238.056 715.761 -239.472 736.98 -241.117 761.545C-246.354 839.886 -253.517 947.176 -246.141 1056.99C-245.869 1088.99 -233.452 1109.84 -209.234 1119.05C-182.619 1129.16 -142.852 1125.35 -91.0413 1107.7L-90.6714 1107.57C-44.5796 1091.83 8.99538 1065.63 64.3052 1031.78C175.685 963.604 270.993 878.965 301.481 821.158C318.838 789.748 330.63 757.873 337.545 723.706C343.778 692.879 345.858 660.956 343.902 626.115C340.166 559.713 321.799 491.93 303.307 428.184C284.809 362.988 251.199 313.644 215.59 299.42C203.175 294.457 190.974 293.982 179.495 297.903L179.484 297.916Z" fill="black"/>
<path d="M-70.0667 1064.5C-110.195 1078.2 -141.317 1081.42 -162.66 1074.05C-182.954 1067.04 -193.689 1050.48 -194.569 1024.82C-206.785 929.029 -201.653 817.075 -197.906 735.318C-197.321 722.487 -196.765 710.376 -196.333 699.493C-194.788 661.553 -179.005 618.492 -151.894 578.233C-124.552 537.647 -88.6654 504.461 -50.8407 484.794C-24.3863 472.642 48.2047 435.566 151.172 353.616C166.443 341.528 183.979 339.294 201.891 347.18C233.13 360.931 262.41 404.066 278.302 459.745C293.59 511.724 310.167 572.182 313.357 631.951C316.732 695.119 304.746 751.116 276.719 803.159C263.321 829.612 236.065 862.038 197.921 896.924C161.589 930.147 118.114 963.231 72.1953 992.598C24.7734 1022.92 -21.3148 1046.69 -61.0889 1061.31C-64.1296 1062.43 -67.1271 1063.49 -70.0731 1064.5L-70.0667 1064.5ZM167.044 346.539C161.788 348.334 156.7 351.161 151.852 354.996C135.378 368.107 101.783 394.132 61.8812 421.09C19.9896 449.4 -17.7745 471.34 -50.376 486.31C-87.9936 505.87 -123.707 538.891 -150.914 579.289C-177.839 619.272 -193.515 661.986 -195.045 699.567C-195.477 710.45 -196.031 722.569 -196.614 735.408C-200.361 817.103 -205.489 928.976 -193.286 1024.6L-193.28 1024.7C-192.442 1049.59 -182.025 1065.66 -162.318 1072.47C-139.955 1080.19 -105.067 1075.79 -61.4337 1059.74C-21.7309 1045.14 24.2764 1021.42 71.6304 991.135C117.488 961.807 160.91 928.767 197.19 895.597C235.207 860.834 262.34 828.556 275.667 802.26C303.536 750.52 315.445 694.85 312.095 632.072C308.916 572.52 292.374 512.192 277.116 460.327C261.351 405.083 232.374 362.332 201.488 348.735C189.653 343.521 177.982 342.822 167.061 346.551L167.044 346.539Z" fill="black"/>
<path d="M-48.5367 1019.78C-77.0302 1029.51 -100.05 1032.23 -115.744 1027.61C-131.505 1022.98 -140.21 1011.18 -141.627 992.53C-161.329 909.499 -156.218 763.796 -154.041 701.566C-151.211 623.816 -99.6998 541.885 -28.7771 502.331C28.3891 474.624 93.598 431.646 132.56 405.975C136.696 403.251 140.582 400.693 144.168 398.334C157.497 389.646 172.632 389.092 187.915 396.715C214.309 409.88 238.843 446.354 251.953 491.911C265.772 538.024 278.897 587.624 281.387 637.906C284.042 691.56 274.032 739.389 250.771 784.135C228.436 830.602 161.189 896.473 79.4501 951.934C40.1474 978.598 1.77308 999.852 -31.5232 1013.4C-37.386 1015.79 -43.0647 1017.92 -48.5415 1019.79L-48.5367 1019.78ZM154.258 394.951C150.981 396.07 147.791 397.637 144.696 399.651C141.107 402.002 137.228 404.557 133.094 407.289C94.114 432.975 28.8696 475.983 -28.3356 503.704C-98.8473 543.028 -150.068 624.426 -152.878 701.638C-155.061 763.809 -160.166 909.403 -140.497 992.179L-140.468 992.32C-139.127 1010.31 -130.723 1021.7 -115.483 1026.18C-96.9722 1031.62 -68.0556 1026.71 -31.8675 1012C1.36568 998.477 39.6786 977.261 78.9133 950.638C160.474 895.291 227.55 829.629 249.8 783.351C301.452 683.993 278.652 585.165 250.877 492.447C237.872 447.261 213.589 411.118 187.498 398.106C176.085 392.412 164.774 391.377 154.268 394.965L154.258 394.951Z" fill="black"/>
<path d="M-22.7614 975.842C-40.178 981.79 -54.6984 983.915 -65.2273 981.736C-76.5651 979.381 -83.2636 972.165 -85.1344 960.289C-95.5324 939.411 -102.658 900.189 -106.325 843.71C-108.995 802.559 -109.684 751.51 -108.208 703.647C-105.75 626.839 -66.4859 558.142 -3.17251 519.877C19.3717 508.147 42.71 495.332 65.2814 482.938C94.4748 466.909 122.049 451.779 140.704 443.053C156.425 435.788 174.407 440.701 191.335 456.877C207.383 472.21 221.156 496.7 229.142 524.07C248.318 586.403 251.938 620.826 252.954 643.854C254.898 687.972 246.851 727.637 228.361 765.103C210.053 806.014 157.178 862.105 90.3672 911.458C47.6914 942.986 7.95962 965.359 -22.7596 975.85L-22.7614 975.842ZM144.474 442.925C143.326 443.317 142.191 443.776 141.062 444.294C122.432 453.004 94.8769 468.127 65.6964 484.151C43.1185 496.548 19.772 509.357 -2.7527 521.08C-65.6829 559.117 -104.731 627.385 -107.169 703.69C-108.641 751.509 -107.958 802.497 -105.292 843.596C-101.636 899.955 -94.537 939.018 -84.2054 959.679L-84.1551 959.786L-84.1308 959.901C-82.3841 971.253 -75.9732 978.16 -65.0634 980.431C-36.1903 986.433 23.1687 959.563 89.8405 910.31C156.501 861.069 209.236 805.168 227.468 764.425C245.851 727.182 253.842 687.775 251.914 643.934C249.992 600.287 238.216 557.206 228.166 524.554C220.252 497.398 206.602 473.124 190.71 457.94C175.288 443.207 159.011 437.969 144.476 442.933L144.474 442.925Z" fill="black"/>
<path d="M8.37608 933.384C1.17322 935.843 -5.08254 937.085 -10.1597 936.986C-17.5857 936.829 -22.4738 933.858 -24.6847 928.138C-40.4188 919.792 -48.697 876.047 -52.8743 840.761C-57.5829 800.961 -59.682 750.483 -58.4948 705.712C-57.4348 667.184 -50.2191 634.977 -36.4305 607.239C-22.348 578.913 -1.82589 556.077 26.3114 537.406C69.6346 512.531 114.705 493.056 141.151 487.779C154.042 485.281 168.4 491.449 181.577 505.133C193.902 517.938 204.341 536.561 210.208 556.231C226.736 607.822 241.627 676.012 209.833 746.063C195.677 781.154 156.831 827.822 105.933 870.855C68.7361 902.309 33.028 924.964 8.36958 933.386L8.37608 933.384ZM118.737 495.266C92.8849 504.095 59.3064 519.743 26.7195 538.454C-1.24834 557.004 -21.6516 579.712 -35.6468 607.857C-49.3481 635.414 -56.5207 667.429 -57.5705 705.741C-59.8014 789.416 -50.9112 913.419 -24.1732 927.131L-24.0091 927.216L-23.9315 927.42C-21.9234 932.837 -17.2833 935.654 -10.1442 935.803C12.1533 936.265 57.5181 910.383 105.433 869.865C156.207 826.936 194.943 780.44 209.036 745.485C240.641 675.853 225.811 607.987 209.362 556.643L209.359 556.627C203.545 537.142 193.204 518.69 180.997 506.013C168.023 492.534 153.922 486.464 141.291 488.909C134.797 490.206 127.176 492.366 118.734 495.249L118.737 495.266Z" fill="black"/>
<path d="M45.6738 894.97C42.5656 896.031 40.0392 896.354 38.2027 895.856C33.2195 898.586 28.4492 898.027 24.026 894.223C11.0795 883.091 3.64875 846.852 -0.308974 818.399C-5.01819 784.552 -7.34853 743.196 -6.55435 707.77C-5.63831 667.697 -1.13171 639.675 8.05971 616.899C17.8588 592.614 33.742 572.921 58.0295 554.928C86.1586 536.251 119.843 527.458 143.851 532.518C165.397 537.179 186.019 564.573 193.504 588.367C210.265 637.097 210.272 683.746 193.534 726.999C187.592 744.387 176.782 764.093 161.423 785.556C148.123 804.137 131.748 823.475 114.049 841.477C86.3466 869.662 59.9333 890.082 45.6768 894.951L45.6738 894.97ZM38.1205 894.804L38.2465 894.84C40.0115 895.363 42.4648 895.056 45.4952 894.021C76.8763 883.304 169.787 793.912 192.802 726.594C209.441 683.596 209.426 637.242 192.758 588.79L192.754 588.773C185.351 565.235 164.979 538.136 143.703 533.534C119.855 528.507 86.3641 537.261 58.3933 555.831C34.2558 573.711 18.4751 593.263 8.74379 617.374C-0.387589 640.005 -4.86662 667.894 -5.7815 707.808C-6.57486 743.171 -4.24067 784.446 0.456392 818.235C4.38713 846.494 11.741 882.467 24.4503 893.396C28.6691 897.022 33.2252 897.521 37.9878 894.867L38.1058 894.8L38.1205 894.804Z" fill="black"/>
<path d="M84.4199 874.37C81.3116 875.432 78.2811 875.209 75.3443 873.679C67.9829 869.86 57.5118 855.748 49.408 810.252C43.9765 779.752 41.0883 742.227 41.6781 709.865C42.3735 671.621 43.2051 646.926 48.8389 626.614C54.6655 605.599 65.4389 589.918 86.0366 572.503C97.3863 562.905 109.485 560.146 121.987 564.3C149.02 573.295 169.471 611.554 173.085 620.541C179.835 637.332 181.689 657.929 178.592 681.768C175.923 702.29 169.602 725.254 159.798 750.046C142.078 794.848 115.858 837.921 97.2314 863.29C92.8461 869.26 88.5616 872.964 84.4216 874.378L84.4199 874.37ZM100.298 565.046C95.5614 566.664 90.9299 569.379 86.4075 573.209C65.9469 590.515 55.2436 606.066 49.4683 626.895C43.8738 647.096 43.0413 671.72 42.3497 709.883C41.2748 768.885 52.4933 860.89 75.5964 872.893C82.1556 876.304 89.266 872.874 96.7333 862.707C115.328 837.384 141.502 794.389 159.188 749.66C168.961 724.95 175.263 702.063 177.915 681.627C180.989 657.974 179.159 637.554 172.479 620.934C168.894 612.017 148.6 574.041 121.807 565.132C114.472 562.694 107.276 562.672 100.287 565.059L100.298 565.046Z" fill="black"/>
</g>
</svg>
