<svg width="436" height="436" viewBox="0 0 436 436" fill="none" xmlns="http://www.w3.org/2000/svg">
<g clip-path="url(#clip0_22_537)">
<path d="M435.029 76.0215C434.239 73.3226 432.073 71.2425 429.34 70.5598L376.529 57.2575L363.518 6.18185C362.813 3.42965 360.7 1.26416 357.957 0.496108C355.225 -0.271947 352.279 0.496108 350.251 2.48025L278.675 72.8853C276.658 74.8588 275.847 77.7603 276.551 80.5018L290.064 133.412L263.082 160.71C234.157 134.863 197.078 120.686 158.099 120.686C71.1536 120.686 0.421371 191.368 0.421371 278.265C0.421371 365.162 71.1536 435.845 158.099 435.845C245.044 435.845 315.765 365.162 315.765 278.265C315.765 247.788 307.045 218.208 290.544 192.734C288.164 189.054 283.244 188.008 279.561 190.387C275.879 192.766 274.833 197.684 277.213 201.364C292.049 224.256 299.883 250.85 299.883 278.265C299.883 356.404 236.281 419.982 158.099 419.982C79.9164 419.982 16.3033 356.404 16.3033 278.265C16.3033 200.126 79.9164 136.548 158.099 136.548C192.883 136.548 225.981 149.115 251.917 172.018L222.961 201.321C204.816 186.013 182.06 177.629 158.099 177.629C102.576 177.629 57.4064 222.773 57.4064 278.265C57.4064 333.757 102.576 378.902 158.099 378.902C213.621 378.902 258.791 333.757 258.791 278.265C258.791 263.438 255.632 249.143 249.409 235.798C247.563 231.83 242.834 230.113 238.864 231.958C234.883 233.814 233.164 238.529 235.021 242.508C240.251 253.741 242.909 265.774 242.909 278.265C242.909 325.01 204.859 363.029 158.099 363.029C111.339 363.029 73.2883 325.01 73.2883 278.265C73.2883 231.521 111.328 193.502 158.099 193.502C177.855 193.502 196.651 200.265 211.764 212.65L173.244 251.639C168.783 249.09 163.606 247.628 158.099 247.628C141.171 247.628 127.445 261.347 127.445 278.265C127.445 295.184 141.171 308.902 158.099 308.902C175.027 308.902 188.753 295.184 188.753 278.265C188.753 272.622 187.216 267.331 184.547 262.787L301.367 144.56L357.69 158.086C360.465 158.747 363.379 157.873 365.332 155.803L433.193 83.6914C435.115 81.6432 435.819 78.7204 435.029 76.0215ZM293.063 80.9925L351.542 23.4844L361.191 61.4178L303.085 120.227L293.063 80.9925ZM356.922 141.573L314.399 131.364L372.462 72.6079L412.37 82.646L356.922 141.573Z" fill="black"/>
<path d="M361.191 61.4173L303.085 120.227L293.063 80.992L351.542 23.4839L361.191 61.4173Z" fill="#16E965"/>
<path d="M412.37 82.6455L356.922 141.572L314.399 131.364L372.462 72.6074L412.37 82.6455Z" fill="#16E965"/>
<path d="M157.33 296.901C167.557 296.901 175.848 288.614 175.848 278.393C175.848 268.171 167.557 259.885 157.33 259.885C147.103 259.885 138.812 268.171 138.812 278.393C138.812 288.614 147.103 296.901 157.33 296.901Z" fill="#16E965"/>
</g>
<defs>
<clipPath id="clip0_22_537">
<rect width="434.928" height="435.636" fill="white" transform="translate(0.421387 0.20752)"/>
</clipPath>
</defs>
</svg>
